<svg xmlns="http://www.w3.org/2000/svg" viewBox="0 0 408.09 110.25"><path d="M117.16,317.08c2.49,8.24,9.57,13,22.16,13,13.4,0,18.13-4.67,18.13-10.88,0-5.83-3.5-9.77-21.2-11.89-24.5-3.06-29.1-11.6-29.1-20.28,0-9,7.18-20.5,29.47-20.5,24.12,0,30.91,12.45,31.64,20.8H155.11c-1.06-4.19-3.91-11-19.22-11-12.9,0-15.64,5.56-15.64,9.54,0,5.19,3.28,8.3,19.22,10.41,26.19,3.52,31.08,11.6,31.08,21.94,0,12.52-9.54,21.85-32,21.85-20.3,0-32.16-8.59-34.55-23Z" transform="translate(-103.96 -229.85)"/><path d="M256.26,303.31c0,19.36-12.52,36.79-37.54,36.79-23.57,0-36.73-17.43-36.73-36.7,0-20,13.95-36.83,37.41-36.83C243.5,266.57,256.26,284.89,256.26,303.31Zm-60.86.09c0,13.22,8.45,26,23.77,26,16,0,23.59-11.89,23.59-25.82s-8.43-26.24-23.91-26.24C203,277.3,195.4,289.43,195.4,303.4Z" transform="translate(-103.96 -229.85)"/><path d="M368.75,306.38c.74,13.37,9.75,23.17,23.88,23.17,10.88,0,16.89-4.45,20.64-11.21h13.09c-3.75,10.37-13.6,21.76-34.43,21.76-25,0-36.32-18.24-36.32-36.56,0-21,14-37,36-37,26.45,0,35.78,19.37,35.78,36.36,0,1.18,0,2.09-.05,3.45Zm45-9.31c-.6-8.28-5-20.3-22.21-20.3-14.28,0-21.27,8.91-22.48,20.3Z" transform="translate(-103.96 -229.85)"/><path d="M453.43,306.38c.74,13.37,9.75,23.17,23.87,23.17,10.89,0,16.9-4.45,20.64-11.21H511c-3.75,10.37-13.6,21.76-34.44,21.76-25,0-36.31-18.24-36.31-36.56,0-21,14-37,36-37,26.45,0,35.77,19.37,35.77,36.36,0,1.18,0,2.09,0,3.45Zm45-9.31c-.6-8.28-5-20.3-22.21-20.3-14.29,0-21.28,8.91-22.48,20.3Z" transform="translate(-103.96 -229.85)"/><path d="M316.6,258.17v-7.25c0-11.76,4.64-21.07,18.43-21.07a22.67,22.67,0,0,1,6.28.64V239a23.56,23.56,0,0,0-4.8-.49c-7.24,0-9.24,4.4-9.24,12.84v6.87" transform="translate(-103.96 -229.85)"/><path d="M282.16,258.17v-7.1c0-11.76,4.8-21.22,18.43-21.22a22.67,22.67,0,0,1,6.28.64V239a23.56,23.56,0,0,0-4.8-.49c-7.24,0-9.24,4.4-9.24,12.84v6.87" transform="translate(-103.96 -229.85)"/><path d="M340.31,268.49v10.33H333l-7,59.35H284.46l-7-59.35H270.4V268.49Zm-50.23,10.37,5.42,45.91h19.57l5.41-45.91Z" transform="translate(-103.96 -229.85)"/></svg>